<mxfile host="Electron" modified="2024-03-07T03:20:15.464Z" agent="Mozilla/5.0 (Windows NT 10.0; Win64; x64) AppleWebKit/537.36 (KHTML, like Gecko) draw.io/22.0.2 Chrome/114.0.5735.289 Electron/25.8.4 Safari/537.36" etag="4JyJknfltzvRpTBrxfHI" version="22.0.2" type="device">
  <diagram id="C5RBs43oDa-KdzZeNtuy" name="Page-1">
    <mxGraphModel dx="2593" dy="2665" grid="1" gridSize="10" guides="1" tooltips="1" connect="1" arrows="1" fold="1" page="1" pageScale="1" pageWidth="827" pageHeight="1169" math="0" shadow="0">
      <root>
        <mxCell id="WIyWlLk6GJQsqaUBKTNV-0" />
        <mxCell id="WIyWlLk6GJQsqaUBKTNV-1" parent="WIyWlLk6GJQsqaUBKTNV-0" />
        <mxCell id="waseF5t9T99Jd2VtrGM4-0" value="MediaFile(metaclass=ABCMeta)" style="swimlane;fontStyle=2;align=center;verticalAlign=top;childLayout=stackLayout;horizontal=1;startSize=26;horizontalStack=0;resizeParent=1;resizeLast=0;collapsible=1;marginBottom=0;rounded=0;shadow=0;strokeWidth=1;" parent="WIyWlLk6GJQsqaUBKTNV-1" vertex="1">
          <mxGeometry x="980" y="90" width="210" height="216" as="geometry">
            <mxRectangle x="1010" y="90" width="160" height="26" as="alternateBounds" />
          </mxGeometry>
        </mxCell>
        <mxCell id="waseF5t9T99Jd2VtrGM4-1" value="filename: str" style="text;align=left;verticalAlign=top;spacingLeft=4;spacingRight=4;overflow=hidden;rotatable=0;points=[[0,0.5],[1,0.5]];portConstraint=eastwest;" parent="waseF5t9T99Jd2VtrGM4-0" vertex="1">
          <mxGeometry y="26" width="210" height="26" as="geometry" />
        </mxCell>
        <mxCell id="waseF5t9T99Jd2VtrGM4-2" value="size: int" style="text;align=left;verticalAlign=top;spacingLeft=4;spacingRight=4;overflow=hidden;rotatable=0;points=[[0,0.5],[1,0.5]];portConstraint=eastwest;rounded=0;shadow=0;html=0;" parent="waseF5t9T99Jd2VtrGM4-0" vertex="1">
          <mxGeometry y="52" width="210" height="26" as="geometry" />
        </mxCell>
        <mxCell id="waseF5t9T99Jd2VtrGM4-3" value="owner: str" style="text;align=left;verticalAlign=top;spacingLeft=4;spacingRight=4;overflow=hidden;rotatable=0;points=[[0,0.5],[1,0.5]];portConstraint=eastwest;rounded=0;shadow=0;html=0;" parent="waseF5t9T99Jd2VtrGM4-0" vertex="1">
          <mxGeometry y="78" width="210" height="26" as="geometry" />
        </mxCell>
        <mxCell id="waseF5t9T99Jd2VtrGM4-6" value="creation_date: datetime" style="text;align=left;verticalAlign=top;spacingLeft=4;spacingRight=4;overflow=hidden;rotatable=0;points=[[0,0.5],[1,0.5]];portConstraint=eastwest;rounded=0;shadow=0;html=0;" parent="waseF5t9T99Jd2VtrGM4-0" vertex="1">
          <mxGeometry y="104" width="210" height="26" as="geometry" />
        </mxCell>
        <mxCell id="waseF5t9T99Jd2VtrGM4-4" value="" style="line;html=1;strokeWidth=1;align=left;verticalAlign=middle;spacingTop=-1;spacingLeft=3;spacingRight=3;rotatable=0;labelPosition=right;points=[];portConstraint=eastwest;" parent="waseF5t9T99Jd2VtrGM4-0" vertex="1">
          <mxGeometry y="130" width="210" height="8" as="geometry" />
        </mxCell>
        <mxCell id="waseF5t9T99Jd2VtrGM4-5" value="save_local(path: str)" style="text;align=left;verticalAlign=top;spacingLeft=4;spacingRight=4;overflow=hidden;rotatable=0;points=[[0,0.5],[1,0.5]];portConstraint=eastwest;" parent="waseF5t9T99Jd2VtrGM4-0" vertex="1">
          <mxGeometry y="138" width="210" height="26" as="geometry" />
        </mxCell>
        <mxCell id="waseF5t9T99Jd2VtrGM4-30" value="remove(path: str)" style="text;align=left;verticalAlign=top;spacingLeft=4;spacingRight=4;overflow=hidden;rotatable=0;points=[[0,0.5],[1,0.5]];portConstraint=eastwest;" parent="waseF5t9T99Jd2VtrGM4-0" vertex="1">
          <mxGeometry y="164" width="210" height="26" as="geometry" />
        </mxCell>
        <mxCell id="waseF5t9T99Jd2VtrGM4-28" value="get_meta() -&gt; dict" style="text;align=left;verticalAlign=top;spacingLeft=4;spacingRight=4;overflow=hidden;rotatable=0;points=[[0,0.5],[1,0.5]];portConstraint=eastwest;" parent="waseF5t9T99Jd2VtrGM4-0" vertex="1">
          <mxGeometry y="190" width="210" height="26" as="geometry" />
        </mxCell>
        <mxCell id="waseF5t9T99Jd2VtrGM4-8" value="AudioFile" style="swimlane;fontStyle=2;align=center;verticalAlign=top;childLayout=stackLayout;horizontal=1;startSize=26;horizontalStack=0;resizeParent=1;resizeLast=0;collapsible=1;marginBottom=0;rounded=0;shadow=0;strokeWidth=1;" parent="WIyWlLk6GJQsqaUBKTNV-1" vertex="1">
          <mxGeometry x="740" y="520" width="190" height="190" as="geometry">
            <mxRectangle x="230" y="140" width="160" height="26" as="alternateBounds" />
          </mxGeometry>
        </mxCell>
        <mxCell id="waseF5t9T99Jd2VtrGM4-13" value="" style="line;html=1;strokeWidth=1;align=left;verticalAlign=middle;spacingTop=-1;spacingLeft=3;spacingRight=3;rotatable=0;labelPosition=right;points=[];portConstraint=eastwest;" parent="waseF5t9T99Jd2VtrGM4-8" vertex="1">
          <mxGeometry y="26" width="190" height="8" as="geometry" />
        </mxCell>
        <mxCell id="waseF5t9T99Jd2VtrGM4-25" value="encode_audio(encode_name: str)" style="text;align=left;verticalAlign=top;spacingLeft=4;spacingRight=4;overflow=hidden;rotatable=0;points=[[0,0.5],[1,0.5]];portConstraint=eastwest;" parent="waseF5t9T99Jd2VtrGM4-8" vertex="1">
          <mxGeometry y="34" width="190" height="26" as="geometry" />
        </mxCell>
        <mxCell id="waseF5t9T99Jd2VtrGM4-17" value="VideoFIle" style="swimlane;fontStyle=2;align=center;verticalAlign=top;childLayout=stackLayout;horizontal=1;startSize=26;horizontalStack=0;resizeParent=1;resizeLast=0;collapsible=1;marginBottom=0;rounded=0;shadow=0;strokeWidth=1;" parent="WIyWlLk6GJQsqaUBKTNV-1" vertex="1">
          <mxGeometry x="995" y="520" width="190" height="190" as="geometry">
            <mxRectangle x="230" y="140" width="160" height="26" as="alternateBounds" />
          </mxGeometry>
        </mxCell>
        <mxCell id="waseF5t9T99Jd2VtrGM4-18" value="encoder: str" style="text;align=left;verticalAlign=top;spacingLeft=4;spacingRight=4;overflow=hidden;rotatable=0;points=[[0,0.5],[1,0.5]];portConstraint=eastwest;rounded=0;shadow=0;html=0;" parent="waseF5t9T99Jd2VtrGM4-17" vertex="1">
          <mxGeometry y="26" width="190" height="26" as="geometry" />
        </mxCell>
        <mxCell id="waseF5t9T99Jd2VtrGM4-19" value="" style="line;html=1;strokeWidth=1;align=left;verticalAlign=middle;spacingTop=-1;spacingLeft=3;spacingRight=3;rotatable=0;labelPosition=right;points=[];portConstraint=eastwest;" parent="waseF5t9T99Jd2VtrGM4-17" vertex="1">
          <mxGeometry y="52" width="190" height="8" as="geometry" />
        </mxCell>
        <mxCell id="waseF5t9T99Jd2VtrGM4-26" value="encode_video(encode_name: str)" style="text;align=left;verticalAlign=top;spacingLeft=4;spacingRight=4;overflow=hidden;rotatable=0;points=[[0,0.5],[1,0.5]];portConstraint=eastwest;" parent="waseF5t9T99Jd2VtrGM4-17" vertex="1">
          <mxGeometry y="60" width="190" height="26" as="geometry" />
        </mxCell>
        <mxCell id="waseF5t9T99Jd2VtrGM4-20" value="PictureFile" style="swimlane;fontStyle=2;align=center;verticalAlign=top;childLayout=stackLayout;horizontal=1;startSize=26;horizontalStack=0;resizeParent=1;resizeLast=0;collapsible=1;marginBottom=0;rounded=0;shadow=0;strokeWidth=1;" parent="WIyWlLk6GJQsqaUBKTNV-1" vertex="1">
          <mxGeometry x="1250" y="520" width="200" height="190" as="geometry">
            <mxRectangle x="230" y="140" width="160" height="26" as="alternateBounds" />
          </mxGeometry>
        </mxCell>
        <mxCell id="waseF5t9T99Jd2VtrGM4-22" value="" style="line;html=1;strokeWidth=1;align=left;verticalAlign=middle;spacingTop=-1;spacingLeft=3;spacingRight=3;rotatable=0;labelPosition=right;points=[];portConstraint=eastwest;" parent="waseF5t9T99Jd2VtrGM4-20" vertex="1">
          <mxGeometry y="26" width="200" height="8" as="geometry" />
        </mxCell>
        <mxCell id="waseF5t9T99Jd2VtrGM4-27" value="encode_format(encode_name: str)" style="text;align=left;verticalAlign=top;spacingLeft=4;spacingRight=4;overflow=hidden;rotatable=0;points=[[0,0.5],[1,0.5]];portConstraint=eastwest;" parent="waseF5t9T99Jd2VtrGM4-20" vertex="1">
          <mxGeometry y="34" width="200" height="26" as="geometry" />
        </mxCell>
        <mxCell id="waseF5t9T99Jd2VtrGM4-23" value="Extends" style="endArrow=block;endSize=16;endFill=0;html=1;rounded=0;exitX=0.5;exitY=0;exitDx=0;exitDy=0;entryX=0.515;entryY=1.017;entryDx=0;entryDy=0;entryPerimeter=0;" parent="WIyWlLk6GJQsqaUBKTNV-1" source="waseF5t9T99Jd2VtrGM4-17" target="waseF5t9T99Jd2VtrGM4-28" edge="1">
          <mxGeometry x="-0.4393" y="30" width="160" relative="1" as="geometry">
            <mxPoint x="1095" y="530" as="sourcePoint" />
            <mxPoint x="1085" y="320" as="targetPoint" />
            <mxPoint as="offset" />
          </mxGeometry>
        </mxCell>
        <mxCell id="waseF5t9T99Jd2VtrGM4-38" value="boto3" style="swimlane;fontStyle=0;childLayout=stackLayout;horizontal=1;startSize=30;horizontalStack=0;resizeParent=1;resizeParentMax=0;resizeLast=0;collapsible=1;marginBottom=0;whiteSpace=wrap;html=1;" parent="WIyWlLk6GJQsqaUBKTNV-1" vertex="1">
          <mxGeometry x="1870" y="530" width="140" height="90" as="geometry" />
        </mxCell>
        <mxCell id="waseF5t9T99Jd2VtrGM4-50" value="client" style="text;strokeColor=none;fillColor=none;align=left;verticalAlign=middle;spacingLeft=4;spacingRight=4;overflow=hidden;points=[[0,0.5],[1,0.5]];portConstraint=eastwest;rotatable=0;whiteSpace=wrap;html=1;" parent="waseF5t9T99Jd2VtrGM4-38" vertex="1">
          <mxGeometry y="30" width="140" height="30" as="geometry" />
        </mxCell>
        <mxCell id="waseF5t9T99Jd2VtrGM4-39" value="Bucket" style="text;strokeColor=none;fillColor=none;align=left;verticalAlign=middle;spacingLeft=4;spacingRight=4;overflow=hidden;points=[[0,0.5],[1,0.5]];portConstraint=eastwest;rotatable=0;whiteSpace=wrap;html=1;" parent="waseF5t9T99Jd2VtrGM4-38" vertex="1">
          <mxGeometry y="60" width="140" height="30" as="geometry" />
        </mxCell>
        <mxCell id="waseF5t9T99Jd2VtrGM4-42" value="S3FileHandlerMixin" style="swimlane;fontStyle=2;align=center;verticalAlign=top;childLayout=stackLayout;horizontal=1;startSize=26;horizontalStack=0;resizeParent=1;resizeLast=0;collapsible=1;marginBottom=0;rounded=0;shadow=0;strokeWidth=1;" parent="WIyWlLk6GJQsqaUBKTNV-1" vertex="1">
          <mxGeometry x="1600" y="530" width="180" height="190" as="geometry">
            <mxRectangle x="230" y="140" width="160" height="26" as="alternateBounds" />
          </mxGeometry>
        </mxCell>
        <mxCell id="waseF5t9T99Jd2VtrGM4-43" value="bucket_name: str" style="text;align=left;verticalAlign=top;spacingLeft=4;spacingRight=4;overflow=hidden;rotatable=0;points=[[0,0.5],[1,0.5]];portConstraint=eastwest;rounded=0;shadow=0;html=0;" parent="waseF5t9T99Jd2VtrGM4-42" vertex="1">
          <mxGeometry y="26" width="180" height="26" as="geometry" />
        </mxCell>
        <mxCell id="waseF5t9T99Jd2VtrGM4-44" value="" style="line;html=1;strokeWidth=1;align=left;verticalAlign=middle;spacingTop=-1;spacingLeft=3;spacingRight=3;rotatable=0;labelPosition=right;points=[];portConstraint=eastwest;" parent="waseF5t9T99Jd2VtrGM4-42" vertex="1">
          <mxGeometry y="52" width="180" height="8" as="geometry" />
        </mxCell>
        <mxCell id="waseF5t9T99Jd2VtrGM4-85" value="read()" style="text;align=left;verticalAlign=top;spacingLeft=4;spacingRight=4;overflow=hidden;rotatable=0;points=[[0,0.5],[1,0.5]];portConstraint=eastwest;" parent="waseF5t9T99Jd2VtrGM4-42" vertex="1">
          <mxGeometry y="60" width="180" height="26" as="geometry" />
        </mxCell>
        <mxCell id="waseF5t9T99Jd2VtrGM4-86" value="write()" style="text;align=left;verticalAlign=top;spacingLeft=4;spacingRight=4;overflow=hidden;rotatable=0;points=[[0,0.5],[1,0.5]];portConstraint=eastwest;" parent="waseF5t9T99Jd2VtrGM4-42" vertex="1">
          <mxGeometry y="86" width="180" height="26" as="geometry" />
        </mxCell>
        <mxCell id="o4cBOgWYOAvBRwUW-E94-41" value="remove()" style="text;align=left;verticalAlign=top;spacingLeft=4;spacingRight=4;overflow=hidden;rotatable=0;points=[[0,0.5],[1,0.5]];portConstraint=eastwest;" vertex="1" parent="waseF5t9T99Jd2VtrGM4-42">
          <mxGeometry y="112" width="180" height="26" as="geometry" />
        </mxCell>
        <mxCell id="waseF5t9T99Jd2VtrGM4-48" value="Extends" style="endArrow=block;endSize=16;endFill=0;html=1;rounded=0;exitX=0.5;exitY=0;exitDx=0;exitDy=0;entryX=0.514;entryY=0.999;entryDx=0;entryDy=0;entryPerimeter=0;" parent="WIyWlLk6GJQsqaUBKTNV-1" source="waseF5t9T99Jd2VtrGM4-8" target="waseF5t9T99Jd2VtrGM4-28" edge="1">
          <mxGeometry x="-0.2952" width="160" relative="1" as="geometry">
            <mxPoint x="970" y="536" as="sourcePoint" />
            <mxPoint x="1036" y="343" as="targetPoint" />
            <mxPoint as="offset" />
            <Array as="points">
              <mxPoint x="835" y="440" />
              <mxPoint x="1090" y="440" />
            </Array>
          </mxGeometry>
        </mxCell>
        <mxCell id="waseF5t9T99Jd2VtrGM4-49" value="Extends" style="endArrow=block;endSize=16;endFill=0;html=1;rounded=0;exitX=0.5;exitY=0;exitDx=0;exitDy=0;entryX=0.515;entryY=1.011;entryDx=0;entryDy=0;entryPerimeter=0;" parent="WIyWlLk6GJQsqaUBKTNV-1" source="waseF5t9T99Jd2VtrGM4-20" target="waseF5t9T99Jd2VtrGM4-28" edge="1">
          <mxGeometry x="-0.4393" y="30" width="160" relative="1" as="geometry">
            <mxPoint x="860" y="530" as="sourcePoint" />
            <mxPoint x="1100" y="130" as="targetPoint" />
            <mxPoint as="offset" />
            <Array as="points">
              <mxPoint x="1350" y="440" />
              <mxPoint x="1090" y="440" />
            </Array>
          </mxGeometry>
        </mxCell>
        <mxCell id="waseF5t9T99Jd2VtrGM4-51" value="NFSFileHandlerMixin" style="swimlane;fontStyle=2;align=center;verticalAlign=top;childLayout=stackLayout;horizontal=1;startSize=26;horizontalStack=0;resizeParent=1;resizeLast=0;collapsible=1;marginBottom=0;rounded=0;shadow=0;strokeWidth=1;" parent="WIyWlLk6GJQsqaUBKTNV-1" vertex="1">
          <mxGeometry x="1600" y="190" width="180" height="190" as="geometry">
            <mxRectangle x="230" y="140" width="160" height="26" as="alternateBounds" />
          </mxGeometry>
        </mxCell>
        <mxCell id="waseF5t9T99Jd2VtrGM4-52" value="host: str" style="text;align=left;verticalAlign=top;spacingLeft=4;spacingRight=4;overflow=hidden;rotatable=0;points=[[0,0.5],[1,0.5]];portConstraint=eastwest;rounded=0;shadow=0;html=0;" parent="waseF5t9T99Jd2VtrGM4-51" vertex="1">
          <mxGeometry y="26" width="180" height="26" as="geometry" />
        </mxCell>
        <mxCell id="waseF5t9T99Jd2VtrGM4-55" value="mount_path: str" style="text;align=left;verticalAlign=top;spacingLeft=4;spacingRight=4;overflow=hidden;rotatable=0;points=[[0,0.5],[1,0.5]];portConstraint=eastwest;rounded=0;shadow=0;html=0;" parent="waseF5t9T99Jd2VtrGM4-51" vertex="1">
          <mxGeometry y="52" width="180" height="26" as="geometry" />
        </mxCell>
        <mxCell id="waseF5t9T99Jd2VtrGM4-56" value="auth: dict" style="text;align=left;verticalAlign=top;spacingLeft=4;spacingRight=4;overflow=hidden;rotatable=0;points=[[0,0.5],[1,0.5]];portConstraint=eastwest;rounded=0;shadow=0;html=0;" parent="waseF5t9T99Jd2VtrGM4-51" vertex="1">
          <mxGeometry y="78" width="180" height="26" as="geometry" />
        </mxCell>
        <mxCell id="waseF5t9T99Jd2VtrGM4-53" value="" style="line;html=1;strokeWidth=1;align=left;verticalAlign=middle;spacingTop=-1;spacingLeft=3;spacingRight=3;rotatable=0;labelPosition=right;points=[];portConstraint=eastwest;" parent="waseF5t9T99Jd2VtrGM4-51" vertex="1">
          <mxGeometry y="104" width="180" height="8" as="geometry" />
        </mxCell>
        <mxCell id="waseF5t9T99Jd2VtrGM4-54" value="read()" style="text;align=left;verticalAlign=top;spacingLeft=4;spacingRight=4;overflow=hidden;rotatable=0;points=[[0,0.5],[1,0.5]];portConstraint=eastwest;" parent="waseF5t9T99Jd2VtrGM4-51" vertex="1">
          <mxGeometry y="112" width="180" height="26" as="geometry" />
        </mxCell>
        <mxCell id="waseF5t9T99Jd2VtrGM4-76" value="write()" style="text;align=left;verticalAlign=top;spacingLeft=4;spacingRight=4;overflow=hidden;rotatable=0;points=[[0,0.5],[1,0.5]];portConstraint=eastwest;" parent="waseF5t9T99Jd2VtrGM4-51" vertex="1">
          <mxGeometry y="138" width="180" height="26" as="geometry" />
        </mxCell>
        <mxCell id="o4cBOgWYOAvBRwUW-E94-39" value="remove()" style="text;align=left;verticalAlign=top;spacingLeft=4;spacingRight=4;overflow=hidden;rotatable=0;points=[[0,0.5],[1,0.5]];portConstraint=eastwest;" vertex="1" parent="waseF5t9T99Jd2VtrGM4-51">
          <mxGeometry y="164" width="180" height="26" as="geometry" />
        </mxCell>
        <mxCell id="waseF5t9T99Jd2VtrGM4-57" value="pyNfsClient" style="swimlane;fontStyle=0;childLayout=stackLayout;horizontal=1;startSize=30;horizontalStack=0;resizeParent=1;resizeParentMax=0;resizeLast=0;collapsible=1;marginBottom=0;whiteSpace=wrap;html=1;" parent="WIyWlLk6GJQsqaUBKTNV-1" vertex="1">
          <mxGeometry x="1870" y="190" width="180" height="270" as="geometry" />
        </mxCell>
        <mxCell id="waseF5t9T99Jd2VtrGM4-58" value="Portmap" style="text;strokeColor=none;fillColor=none;align=left;verticalAlign=middle;spacingLeft=4;spacingRight=4;overflow=hidden;points=[[0,0.5],[1,0.5]];portConstraint=eastwest;rotatable=0;whiteSpace=wrap;html=1;" parent="waseF5t9T99Jd2VtrGM4-57" vertex="1">
          <mxGeometry y="30" width="180" height="30" as="geometry" />
        </mxCell>
        <mxCell id="waseF5t9T99Jd2VtrGM4-60" value="Mount" style="text;strokeColor=none;fillColor=none;align=left;verticalAlign=middle;spacingLeft=4;spacingRight=4;overflow=hidden;points=[[0,0.5],[1,0.5]];portConstraint=eastwest;rotatable=0;whiteSpace=wrap;html=1;" parent="waseF5t9T99Jd2VtrGM4-57" vertex="1">
          <mxGeometry y="60" width="180" height="30" as="geometry" />
        </mxCell>
        <mxCell id="waseF5t9T99Jd2VtrGM4-62" value="NFSv3" style="text;strokeColor=none;fillColor=none;align=left;verticalAlign=middle;spacingLeft=4;spacingRight=4;overflow=hidden;points=[[0,0.5],[1,0.5]];portConstraint=eastwest;rotatable=0;whiteSpace=wrap;html=1;" parent="waseF5t9T99Jd2VtrGM4-57" vertex="1">
          <mxGeometry y="90" width="180" height="30" as="geometry" />
        </mxCell>
        <mxCell id="waseF5t9T99Jd2VtrGM4-63" value="MNT3_OK" style="text;strokeColor=none;fillColor=none;align=left;verticalAlign=middle;spacingLeft=4;spacingRight=4;overflow=hidden;points=[[0,0.5],[1,0.5]];portConstraint=eastwest;rotatable=0;whiteSpace=wrap;html=1;" parent="waseF5t9T99Jd2VtrGM4-57" vertex="1">
          <mxGeometry y="120" width="180" height="30" as="geometry" />
        </mxCell>
        <mxCell id="waseF5t9T99Jd2VtrGM4-61" value="NFS_PROGRAM" style="text;strokeColor=none;fillColor=none;align=left;verticalAlign=middle;spacingLeft=4;spacingRight=4;overflow=hidden;points=[[0,0.5],[1,0.5]];portConstraint=eastwest;rotatable=0;whiteSpace=wrap;html=1;" parent="waseF5t9T99Jd2VtrGM4-57" vertex="1">
          <mxGeometry y="150" width="180" height="30" as="geometry" />
        </mxCell>
        <mxCell id="waseF5t9T99Jd2VtrGM4-65" value="NFS_V3" style="text;strokeColor=none;fillColor=none;align=left;verticalAlign=middle;spacingLeft=4;spacingRight=4;overflow=hidden;points=[[0,0.5],[1,0.5]];portConstraint=eastwest;rotatable=0;whiteSpace=wrap;html=1;" parent="waseF5t9T99Jd2VtrGM4-57" vertex="1">
          <mxGeometry y="180" width="180" height="30" as="geometry" />
        </mxCell>
        <mxCell id="waseF5t9T99Jd2VtrGM4-64" value="NFS3_OK" style="text;strokeColor=none;fillColor=none;align=left;verticalAlign=middle;spacingLeft=4;spacingRight=4;overflow=hidden;points=[[0,0.5],[1,0.5]];portConstraint=eastwest;rotatable=0;whiteSpace=wrap;html=1;" parent="waseF5t9T99Jd2VtrGM4-57" vertex="1">
          <mxGeometry y="210" width="180" height="30" as="geometry" />
        </mxCell>
        <mxCell id="waseF5t9T99Jd2VtrGM4-59" value="&lt;div style=&quot;border-color: var(--border-color);&quot;&gt;&lt;span style=&quot;background-color: initial;&quot;&gt;DATA_SYNC&lt;/span&gt;&lt;/div&gt;" style="text;strokeColor=none;fillColor=none;align=left;verticalAlign=middle;spacingLeft=4;spacingRight=4;overflow=hidden;points=[[0,0.5],[1,0.5]];portConstraint=eastwest;rotatable=0;whiteSpace=wrap;html=1;" parent="waseF5t9T99Jd2VtrGM4-57" vertex="1">
          <mxGeometry y="240" width="180" height="30" as="geometry" />
        </mxCell>
        <mxCell id="waseF5t9T99Jd2VtrGM4-70" value="Use" style="endArrow=open;endSize=12;dashed=1;html=1;rounded=0;exitX=0.5;exitY=0;exitDx=0;exitDy=0;movable=1;resizable=1;rotatable=1;deletable=1;editable=1;locked=0;connectable=1;entryX=0.5;entryY=0;entryDx=0;entryDy=0;" parent="WIyWlLk6GJQsqaUBKTNV-1" source="waseF5t9T99Jd2VtrGM4-51" target="waseF5t9T99Jd2VtrGM4-57" edge="1">
          <mxGeometry width="160" relative="1" as="geometry">
            <mxPoint x="1689.76" y="470" as="sourcePoint" />
            <mxPoint x="1689.76" y="40" as="targetPoint" />
            <Array as="points">
              <mxPoint x="1690" y="150" />
              <mxPoint x="1820" y="150" />
              <mxPoint x="1960" y="150" />
            </Array>
          </mxGeometry>
        </mxCell>
        <mxCell id="waseF5t9T99Jd2VtrGM4-71" value="Use" style="endArrow=open;endSize=12;dashed=1;html=1;rounded=0;exitX=0.5;exitY=0;exitDx=0;exitDy=0;entryX=0.5;entryY=0;entryDx=0;entryDy=0;" parent="WIyWlLk6GJQsqaUBKTNV-1" source="waseF5t9T99Jd2VtrGM4-42" target="waseF5t9T99Jd2VtrGM4-38" edge="1">
          <mxGeometry width="160" relative="1" as="geometry">
            <mxPoint x="1680" y="510" as="sourcePoint" />
            <mxPoint x="1890" y="470" as="targetPoint" />
            <Array as="points">
              <mxPoint x="1690" y="490" />
              <mxPoint x="1940" y="490" />
            </Array>
          </mxGeometry>
        </mxCell>
        <mxCell id="o4cBOgWYOAvBRwUW-E94-0" value="FileMP3" style="swimlane;fontStyle=2;align=center;verticalAlign=top;childLayout=stackLayout;horizontal=1;startSize=26;horizontalStack=0;resizeParent=1;resizeLast=0;collapsible=1;marginBottom=0;rounded=0;shadow=0;strokeWidth=1;" vertex="1" parent="WIyWlLk6GJQsqaUBKTNV-1">
          <mxGeometry x="740" y="830" width="190" height="190" as="geometry">
            <mxRectangle x="230" y="140" width="160" height="26" as="alternateBounds" />
          </mxGeometry>
        </mxCell>
        <mxCell id="o4cBOgWYOAvBRwUW-E94-2" value="" style="line;html=1;strokeWidth=1;align=left;verticalAlign=middle;spacingTop=-1;spacingLeft=3;spacingRight=3;rotatable=0;labelPosition=right;points=[];portConstraint=eastwest;" vertex="1" parent="o4cBOgWYOAvBRwUW-E94-0">
          <mxGeometry y="26" width="190" height="8" as="geometry" />
        </mxCell>
        <mxCell id="o4cBOgWYOAvBRwUW-E94-4" value="" style="endArrow=block;html=1;rounded=0;exitX=0.5;exitY=0;exitDx=0;exitDy=0;entryX=0.5;entryY=1;entryDx=0;entryDy=0;endFill=0;" edge="1" parent="WIyWlLk6GJQsqaUBKTNV-1" source="o4cBOgWYOAvBRwUW-E94-6" target="waseF5t9T99Jd2VtrGM4-17">
          <mxGeometry width="50" height="50" relative="1" as="geometry">
            <mxPoint x="1060" y="1120" as="sourcePoint" />
            <mxPoint x="1110" y="1070" as="targetPoint" />
          </mxGeometry>
        </mxCell>
        <mxCell id="o4cBOgWYOAvBRwUW-E94-5" value="" style="endArrow=block;html=1;rounded=0;exitX=0.5;exitY=0;exitDx=0;exitDy=0;entryX=0.5;entryY=1;entryDx=0;entryDy=0;endFill=0;" edge="1" parent="WIyWlLk6GJQsqaUBKTNV-1" source="o4cBOgWYOAvBRwUW-E94-0" target="waseF5t9T99Jd2VtrGM4-8">
          <mxGeometry width="50" height="50" relative="1" as="geometry">
            <mxPoint x="1010" y="680" as="sourcePoint" />
            <mxPoint x="1060" y="630" as="targetPoint" />
          </mxGeometry>
        </mxCell>
        <mxCell id="o4cBOgWYOAvBRwUW-E94-6" value="FileMP4" style="swimlane;fontStyle=2;align=center;verticalAlign=top;childLayout=stackLayout;horizontal=1;startSize=26;horizontalStack=0;resizeParent=1;resizeLast=0;collapsible=1;marginBottom=0;rounded=0;shadow=0;strokeWidth=1;" vertex="1" parent="WIyWlLk6GJQsqaUBKTNV-1">
          <mxGeometry x="995" y="830" width="190" height="190" as="geometry">
            <mxRectangle x="230" y="140" width="160" height="26" as="alternateBounds" />
          </mxGeometry>
        </mxCell>
        <mxCell id="o4cBOgWYOAvBRwUW-E94-8" value="" style="line;html=1;strokeWidth=1;align=left;verticalAlign=middle;spacingTop=-1;spacingLeft=3;spacingRight=3;rotatable=0;labelPosition=right;points=[];portConstraint=eastwest;" vertex="1" parent="o4cBOgWYOAvBRwUW-E94-6">
          <mxGeometry y="26" width="190" height="8" as="geometry" />
        </mxCell>
        <mxCell id="o4cBOgWYOAvBRwUW-E94-10" value="FilePNG" style="swimlane;fontStyle=2;align=center;verticalAlign=top;childLayout=stackLayout;horizontal=1;startSize=26;horizontalStack=0;resizeParent=1;resizeLast=0;collapsible=1;marginBottom=0;rounded=0;shadow=0;strokeWidth=1;" vertex="1" parent="WIyWlLk6GJQsqaUBKTNV-1">
          <mxGeometry x="1255" y="830" width="190" height="190" as="geometry">
            <mxRectangle x="230" y="140" width="160" height="26" as="alternateBounds" />
          </mxGeometry>
        </mxCell>
        <mxCell id="o4cBOgWYOAvBRwUW-E94-15" value="resolution: tuple" style="text;align=left;verticalAlign=top;spacingLeft=4;spacingRight=4;overflow=hidden;rotatable=0;points=[[0,0.5],[1,0.5]];portConstraint=eastwest;rounded=0;shadow=0;html=0;" vertex="1" parent="o4cBOgWYOAvBRwUW-E94-10">
          <mxGeometry y="26" width="190" height="26" as="geometry" />
        </mxCell>
        <mxCell id="o4cBOgWYOAvBRwUW-E94-12" value="" style="line;html=1;strokeWidth=1;align=left;verticalAlign=middle;spacingTop=-1;spacingLeft=3;spacingRight=3;rotatable=0;labelPosition=right;points=[];portConstraint=eastwest;" vertex="1" parent="o4cBOgWYOAvBRwUW-E94-10">
          <mxGeometry y="52" width="190" height="8" as="geometry" />
        </mxCell>
        <mxCell id="o4cBOgWYOAvBRwUW-E94-14" value="" style="endArrow=block;html=1;rounded=0;exitX=0.5;exitY=0;exitDx=0;exitDy=0;entryX=0.5;entryY=1;entryDx=0;entryDy=0;endFill=0;" edge="1" parent="WIyWlLk6GJQsqaUBKTNV-1" source="o4cBOgWYOAvBRwUW-E94-10" target="waseF5t9T99Jd2VtrGM4-20">
          <mxGeometry width="50" height="50" relative="1" as="geometry">
            <mxPoint x="1005" y="840" as="sourcePoint" />
            <mxPoint x="1005" y="720" as="targetPoint" />
          </mxGeometry>
        </mxCell>
        <mxCell id="o4cBOgWYOAvBRwUW-E94-16" value="LocalFileHandlerMixin" style="swimlane;fontStyle=2;align=center;verticalAlign=top;childLayout=stackLayout;horizontal=1;startSize=26;horizontalStack=0;resizeParent=1;resizeLast=0;collapsible=1;marginBottom=0;rounded=0;shadow=0;strokeWidth=1;" vertex="1" parent="WIyWlLk6GJQsqaUBKTNV-1">
          <mxGeometry x="1600" y="780" width="180" height="190" as="geometry">
            <mxRectangle x="230" y="140" width="160" height="26" as="alternateBounds" />
          </mxGeometry>
        </mxCell>
        <mxCell id="o4cBOgWYOAvBRwUW-E94-17" value="filepath: Path" style="text;align=left;verticalAlign=top;spacingLeft=4;spacingRight=4;overflow=hidden;rotatable=0;points=[[0,0.5],[1,0.5]];portConstraint=eastwest;rounded=0;shadow=0;html=0;" vertex="1" parent="o4cBOgWYOAvBRwUW-E94-16">
          <mxGeometry y="26" width="180" height="26" as="geometry" />
        </mxCell>
        <mxCell id="o4cBOgWYOAvBRwUW-E94-18" value="" style="line;html=1;strokeWidth=1;align=left;verticalAlign=middle;spacingTop=-1;spacingLeft=3;spacingRight=3;rotatable=0;labelPosition=right;points=[];portConstraint=eastwest;" vertex="1" parent="o4cBOgWYOAvBRwUW-E94-16">
          <mxGeometry y="52" width="180" height="8" as="geometry" />
        </mxCell>
        <mxCell id="o4cBOgWYOAvBRwUW-E94-21" value="MediaFileHandlerMixin(metaclass=ABCMeta)" style="swimlane;fontStyle=2;align=center;verticalAlign=top;childLayout=stackLayout;horizontal=1;startSize=26;horizontalStack=0;resizeParent=1;resizeLast=0;collapsible=1;marginBottom=0;rounded=0;shadow=0;strokeWidth=1;" vertex="1" parent="WIyWlLk6GJQsqaUBKTNV-1">
          <mxGeometry x="1600" y="-200" width="290" height="320" as="geometry">
            <mxRectangle x="230" y="140" width="160" height="26" as="alternateBounds" />
          </mxGeometry>
        </mxCell>
        <mxCell id="o4cBOgWYOAvBRwUW-E94-25" value="" style="line;html=1;strokeWidth=1;align=left;verticalAlign=middle;spacingTop=-1;spacingLeft=3;spacingRight=3;rotatable=0;labelPosition=right;points=[];portConstraint=eastwest;" vertex="1" parent="o4cBOgWYOAvBRwUW-E94-21">
          <mxGeometry y="26" width="290" height="8" as="geometry" />
        </mxCell>
        <mxCell id="o4cBOgWYOAvBRwUW-E94-26" value="@abstractmethod&#xa;read()" style="text;align=left;verticalAlign=top;spacingLeft=4;spacingRight=4;overflow=hidden;rotatable=0;points=[[0,0.5],[1,0.5]];portConstraint=eastwest;" vertex="1" parent="o4cBOgWYOAvBRwUW-E94-21">
          <mxGeometry y="34" width="290" height="38" as="geometry" />
        </mxCell>
        <mxCell id="o4cBOgWYOAvBRwUW-E94-27" value="@abstractmethod&#xa;write()" style="text;align=left;verticalAlign=top;spacingLeft=4;spacingRight=4;overflow=hidden;rotatable=0;points=[[0,0.5],[1,0.5]];portConstraint=eastwest;" vertex="1" parent="o4cBOgWYOAvBRwUW-E94-21">
          <mxGeometry y="72" width="290" height="40" as="geometry" />
        </mxCell>
        <mxCell id="o4cBOgWYOAvBRwUW-E94-38" value="@abstractmethod&#xa;remove()" style="text;align=left;verticalAlign=top;spacingLeft=4;spacingRight=4;overflow=hidden;rotatable=0;points=[[0,0.5],[1,0.5]];portConstraint=eastwest;" vertex="1" parent="o4cBOgWYOAvBRwUW-E94-21">
          <mxGeometry y="112" width="290" height="40" as="geometry" />
        </mxCell>
        <mxCell id="o4cBOgWYOAvBRwUW-E94-28" value="MediaFileFormatConverter(metaclass=ABCMeta)" style="swimlane;fontStyle=2;align=center;verticalAlign=top;childLayout=stackLayout;horizontal=1;startSize=26;horizontalStack=0;resizeParent=1;resizeLast=0;collapsible=1;marginBottom=0;rounded=0;shadow=0;strokeWidth=1;" vertex="1" parent="WIyWlLk6GJQsqaUBKTNV-1">
          <mxGeometry x="320" y="100" width="270" height="216" as="geometry">
            <mxRectangle x="1010" y="90" width="160" height="26" as="alternateBounds" />
          </mxGeometry>
        </mxCell>
        <mxCell id="o4cBOgWYOAvBRwUW-E94-29" value="input_file: MediaFile&#xa;" style="text;align=left;verticalAlign=top;spacingLeft=4;spacingRight=4;overflow=hidden;rotatable=0;points=[[0,0.5],[1,0.5]];portConstraint=eastwest;" vertex="1" parent="o4cBOgWYOAvBRwUW-E94-28">
          <mxGeometry y="26" width="270" height="26" as="geometry" />
        </mxCell>
        <mxCell id="o4cBOgWYOAvBRwUW-E94-40" value="output_format: str" style="text;align=left;verticalAlign=top;spacingLeft=4;spacingRight=4;overflow=hidden;rotatable=0;points=[[0,0.5],[1,0.5]];portConstraint=eastwest;" vertex="1" parent="o4cBOgWYOAvBRwUW-E94-28">
          <mxGeometry y="52" width="270" height="26" as="geometry" />
        </mxCell>
        <mxCell id="o4cBOgWYOAvBRwUW-E94-33" value="" style="line;html=1;strokeWidth=1;align=left;verticalAlign=middle;spacingTop=-1;spacingLeft=3;spacingRight=3;rotatable=0;labelPosition=right;points=[];portConstraint=eastwest;" vertex="1" parent="o4cBOgWYOAvBRwUW-E94-28">
          <mxGeometry y="78" width="270" height="8" as="geometry" />
        </mxCell>
        <mxCell id="o4cBOgWYOAvBRwUW-E94-37" value="@abstractmethod&#xa;convert()  -&gt; MediaFile&#xa;" style="text;align=left;verticalAlign=top;spacingLeft=4;spacingRight=4;overflow=hidden;rotatable=0;points=[[0,0.5],[1,0.5]];portConstraint=eastwest;rounded=0;shadow=0;html=0;" vertex="1" parent="o4cBOgWYOAvBRwUW-E94-28">
          <mxGeometry y="86" width="270" height="44" as="geometry" />
        </mxCell>
        <mxCell id="o4cBOgWYOAvBRwUW-E94-42" value="pathlib" style="swimlane;fontStyle=0;childLayout=stackLayout;horizontal=1;startSize=30;horizontalStack=0;resizeParent=1;resizeParentMax=0;resizeLast=0;collapsible=1;marginBottom=0;whiteSpace=wrap;html=1;" vertex="1" parent="WIyWlLk6GJQsqaUBKTNV-1">
          <mxGeometry x="1870" y="780" width="140" height="60" as="geometry" />
        </mxCell>
        <mxCell id="o4cBOgWYOAvBRwUW-E94-43" value="Path" style="text;strokeColor=none;fillColor=none;align=left;verticalAlign=middle;spacingLeft=4;spacingRight=4;overflow=hidden;points=[[0,0.5],[1,0.5]];portConstraint=eastwest;rotatable=0;whiteSpace=wrap;html=1;" vertex="1" parent="o4cBOgWYOAvBRwUW-E94-42">
          <mxGeometry y="30" width="140" height="30" as="geometry" />
        </mxCell>
        <mxCell id="o4cBOgWYOAvBRwUW-E94-45" value="Use" style="endArrow=open;endSize=12;dashed=1;html=1;rounded=0;exitX=0.5;exitY=0;exitDx=0;exitDy=0;entryX=0.5;entryY=0;entryDx=0;entryDy=0;" edge="1" parent="WIyWlLk6GJQsqaUBKTNV-1">
          <mxGeometry width="160" relative="1" as="geometry">
            <mxPoint x="1690" y="780" as="sourcePoint" />
            <mxPoint x="1940" y="780" as="targetPoint" />
            <Array as="points">
              <mxPoint x="1690" y="740" />
              <mxPoint x="1940" y="740" />
            </Array>
          </mxGeometry>
        </mxCell>
        <mxCell id="o4cBOgWYOAvBRwUW-E94-46" value="" style="endArrow=diamondThin;html=1;rounded=0;entryX=0.5;entryY=1;entryDx=0;entryDy=0;endFill=1;strokeWidth=2;endSize=11;" edge="1" parent="WIyWlLk6GJQsqaUBKTNV-1" source="waseF5t9T99Jd2VtrGM4-51" target="o4cBOgWYOAvBRwUW-E94-10">
          <mxGeometry width="50" height="50" relative="1" as="geometry">
            <mxPoint x="1440" y="350" as="sourcePoint" />
            <mxPoint x="1340" y="940" as="targetPoint" />
            <Array as="points">
              <mxPoint x="1520" y="285" />
              <mxPoint x="1520" y="1080" />
              <mxPoint x="1350" y="1080" />
            </Array>
          </mxGeometry>
        </mxCell>
        <mxCell id="o4cBOgWYOAvBRwUW-E94-51" value="Composition" style="text;html=1;strokeColor=none;fillColor=none;align=center;verticalAlign=middle;whiteSpace=wrap;rounded=0;" vertex="1" parent="WIyWlLk6GJQsqaUBKTNV-1">
          <mxGeometry x="1520" y="254" width="60" height="30" as="geometry" />
        </mxCell>
        <mxCell id="o4cBOgWYOAvBRwUW-E94-52" value="" style="endArrow=none;html=1;rounded=0;" edge="1" parent="WIyWlLk6GJQsqaUBKTNV-1">
          <mxGeometry width="50" height="50" relative="1" as="geometry">
            <mxPoint x="1520" y="670" as="sourcePoint" />
            <mxPoint x="1600" y="670" as="targetPoint" />
          </mxGeometry>
        </mxCell>
        <mxCell id="o4cBOgWYOAvBRwUW-E94-53" value="" style="endArrow=none;html=1;rounded=0;entryX=0;entryY=0.5;entryDx=0;entryDy=0;" edge="1" parent="WIyWlLk6GJQsqaUBKTNV-1" target="o4cBOgWYOAvBRwUW-E94-16">
          <mxGeometry width="50" height="50" relative="1" as="geometry">
            <mxPoint x="1520" y="875" as="sourcePoint" />
            <mxPoint x="1590" y="870" as="targetPoint" />
          </mxGeometry>
        </mxCell>
        <mxCell id="o4cBOgWYOAvBRwUW-E94-54" value="" style="endArrow=diamondThin;html=1;rounded=0;entryX=0.5;entryY=1;entryDx=0;entryDy=0;endFill=1;strokeWidth=2;endSize=11;" edge="1" parent="WIyWlLk6GJQsqaUBKTNV-1">
          <mxGeometry width="50" height="50" relative="1" as="geometry">
            <mxPoint x="1350" y="1079" as="sourcePoint" />
            <mxPoint x="1080" y="1019" as="targetPoint" />
            <Array as="points">
              <mxPoint x="1080" y="1079" />
            </Array>
          </mxGeometry>
        </mxCell>
        <mxCell id="o4cBOgWYOAvBRwUW-E94-55" value="" style="endArrow=diamondThin;html=1;rounded=0;entryX=0.5;entryY=1;entryDx=0;entryDy=0;endFill=1;strokeWidth=2;endSize=11;" edge="1" parent="WIyWlLk6GJQsqaUBKTNV-1">
          <mxGeometry width="50" height="50" relative="1" as="geometry">
            <mxPoint x="1080" y="1080" as="sourcePoint" />
            <mxPoint x="810" y="1020" as="targetPoint" />
            <Array as="points">
              <mxPoint x="810" y="1080" />
            </Array>
          </mxGeometry>
        </mxCell>
        <mxCell id="o4cBOgWYOAvBRwUW-E94-56" value="OggToMp3Converter" style="swimlane;fontStyle=2;align=center;verticalAlign=top;childLayout=stackLayout;horizontal=1;startSize=26;horizontalStack=0;resizeParent=1;resizeLast=0;collapsible=1;marginBottom=0;rounded=0;shadow=0;strokeWidth=1;" vertex="1" parent="WIyWlLk6GJQsqaUBKTNV-1">
          <mxGeometry x="320" y="410" width="270" height="216" as="geometry">
            <mxRectangle x="1010" y="90" width="160" height="26" as="alternateBounds" />
          </mxGeometry>
        </mxCell>
        <mxCell id="o4cBOgWYOAvBRwUW-E94-59" value="" style="line;html=1;strokeWidth=1;align=left;verticalAlign=middle;spacingTop=-1;spacingLeft=3;spacingRight=3;rotatable=0;labelPosition=right;points=[];portConstraint=eastwest;" vertex="1" parent="o4cBOgWYOAvBRwUW-E94-56">
          <mxGeometry y="26" width="270" height="8" as="geometry" />
        </mxCell>
        <mxCell id="o4cBOgWYOAvBRwUW-E94-60" value="&#xa;convert()  -&gt; MediaFile&#xa;" style="text;align=left;verticalAlign=top;spacingLeft=4;spacingRight=4;overflow=hidden;rotatable=0;points=[[0,0.5],[1,0.5]];portConstraint=eastwest;rounded=0;shadow=0;html=0;" vertex="1" parent="o4cBOgWYOAvBRwUW-E94-56">
          <mxGeometry y="34" width="270" height="44" as="geometry" />
        </mxCell>
        <mxCell id="o4cBOgWYOAvBRwUW-E94-61" value="Extends" style="endArrow=block;endSize=16;endFill=0;html=1;rounded=0;entryX=0.5;entryY=1;entryDx=0;entryDy=0;exitX=0.5;exitY=0;exitDx=0;exitDy=0;" edge="1" parent="WIyWlLk6GJQsqaUBKTNV-1" source="o4cBOgWYOAvBRwUW-E94-56" target="o4cBOgWYOAvBRwUW-E94-28">
          <mxGeometry x="-0.4393" y="30" width="160" relative="1" as="geometry">
            <mxPoint x="700" y="290" as="sourcePoint" />
            <mxPoint x="668" y="150" as="targetPoint" />
            <mxPoint as="offset" />
            <Array as="points" />
          </mxGeometry>
        </mxCell>
      </root>
    </mxGraphModel>
  </diagram>
</mxfile>
